<?xml version="1.0" encoding="utf-8"?>
<!-- Generator: Adobe Illustrator 16.0.0, SVG Export Plug-In . SVG Version: 6.00 Build 0)  -->
<!DOCTYPE svg PUBLIC "-//W3C//DTD SVG 1.1//EN" "http://www.w3.org/Graphics/SVG/1.1/DTD/svg11.dtd">
<svg version="1.1" id="Capa_1" xmlns="http://www.w3.org/2000/svg" xmlns:xlink="http://www.w3.org/1999/xlink" x="0px" y="0px"
	 width="841.889px" height="595.281px" viewBox="0 0 841.889 595.281" enable-background="new 0 0 841.889 595.281"
	 xml:space="preserve">
<path fill="#555555" d="M708.81,48.208c-0.973-20.807-17.622-37.456-38.429-38.429l-208.06-9.732
	c-11.341-0.549-22.393,3.743-30.424,11.776L135.125,308.597c-7.566,7.569-11.82,17.832-11.82,28.537s4.251,20.971,11.82,28.539
	l217.79,217.788c7.878,7.88,18.208,11.819,28.537,11.819c10.328,0,20.657-3.941,28.539-11.819l296.771-296.771
	c8.031-8.031,12.309-19.077,11.778-30.424L708.81,48.208z M632.785,153.536c-18.703,18.704-49.03,18.704-67.734,0
	s-18.704-49.031,0-67.734c18.704-18.704,49.031-18.704,67.734,0C651.49,104.505,651.491,134.83,632.785,153.536z"/>
</svg>
