<?xml version="1.0" encoding="utf-8"?>
<!-- Generator: Adobe Illustrator 16.0.0, SVG Export Plug-In . SVG Version: 6.00 Build 0)  -->
<!DOCTYPE svg PUBLIC "-//W3C//DTD SVG 1.1//EN" "http://www.w3.org/Graphics/SVG/1.1/DTD/svg11.dtd">
<svg version="1.1" id="Layer_1" xmlns="http://www.w3.org/2000/svg" xmlns:xlink="http://www.w3.org/1999/xlink" x="0px" y="0px"
	 width="512px" height="512px" viewBox="0 0 512 512" enable-background="new 0 0 512 512" xml:space="preserve">
<g>
	<path fill="#555555" d="M407.578,87.677C376.506,34.053,321.314,1.292,259.939,0.04c-2.62-0.054-5.257-0.054-7.878,0
		c-61.374,1.252-116.565,34.014-147.64,87.638C72.659,142.489,71.79,208.329,102.096,263.8l126.963,232.388
		c0.058,0.103,0.114,0.206,0.173,0.308c5.586,9.709,15.594,15.505,26.771,15.505c11.176,0,21.183-5.797,26.768-15.505
		c0.06-0.102,0.116-0.205,0.173-0.308L409.906,263.8C440.21,208.329,439.341,142.489,407.578,87.677z M256,232
		c-39.701,0-72-32.299-72-72s32.299-72,72-72s72,32.299,72,72S295.702,232,256,232z"/>
</g>
</svg>
